<?xml version="1.0" encoding="UTF-8"?>
<svg version="1.1" viewBox="0 0 2048 2048" width="2048" height="2048" xmlns="http://www.w3.org/2000/svg">
<path transform="translate(1445,420)" d="m0 0 10 2 6 4 5 7 1 3v10l-4 8-7 6-31 12-72 27-59 22-19 7-5 24-28 145-10 52-1 2 24-7 20-7 15-7 11-6 7-6-1-5-9-8-4-9v-8l3-7 6-7 7-3h11l8 4 8 7 8 10 5 7 5 5 3 7v18l-8 113-46 624-2 13-2 5-4 17-7 14-9 12-15 15-17 12-21 12-23 10-25 9-29 8-34 7-33 5-31 3-17 1h-67l-39-3-42-6-36-8-27-8-19-7-20-9-18-10-14-10-12-11-10-11-8-14-3-8-6-49-57-490-26-224-3-34 2-8 4-6 13-13 12-9 16-9 21-9 24-8 36-9 37-7 35-5 36-4 39-3 44-2h88l44 2 48 4 22 3 9 4 5 5 3 6 1 7-3 9-5 6-9 4h-10l-61-5-42-2h-93l-41 2-48 4-40 5-41 7-38 9-33 11-16 8-9 6-5 5 2 4 7 6 17 9 25 9 29 8 34 7 37 6 44 5 40 3 46 2h75l46-2 49-4 48-6 15-2 1-9 33-171 14-73 5-10 6-5 4-2 11-2 42-16 136-51zm-133 346-19 9-19 7-28 8-22 5-2 1-31 160-6 32v5l21-3 23-6 34-13 25-12 11-7 1-4 13-176v-6zm-635 5 4 37 21 181 1 2 5-2 16-9 21-9 24-8 26-6 32-5 24-2h48l36 3 40 6 41 9 66 16 31 6 23 3h6l11-56 25-129v-4l-19 2-45 5-41 3-49 2h-67l-49-2-51-4-50-6-35-6-36-8-28-8-24-9-4-2zm179 199-26 2-32 5-25 6-24 8-22 10-16 10-5 4 1 17 53 455 2 10 7 9 7 7 16 11 19 10 23 9 26 8 26 6 36 6 29 3 15 1h70l37-3 35-5 29-6 26-7 21-7 23-10 15-8 13-9 12-11 7-9 3-7 3-14 2-7 35-475v-11l-6 2-21 10-29 11-19 6-24 5-17 2-2 5-26 134-32 166-24 125-4 17-3 6-5 5-8 3h-7l-9-4-5-7-2-10 4-24 66-342 14-74-39-6-41-9-66-16-37-7-32-4-29-2z"/>
<path transform="translate(1569,1148)" d="m0 0 8 1 5 5 4 13 2 18v23l-3 26-5 23-7 21-8 16-8 14-12 16-9 10-8 8v1l21 3 25 7 19 8 15 8 15 10 21 16 11 9 3 4v9l-4 10-12 13-7 7-20 15-18 11-19 10-16 6-28 7-21 3h-40l-21-3-22-6-20-7-25-11-20-11-15-10-3-4 1-17 7-14 10-14 11-12 9-9 14-10 5-3-1-9-3-13v-21l3-22 5-21 6-17 8-17 10-15 9-11 11-12 13-11 16-11 19-11 29-14 28-11zm-5 24-28 11-29 14-18 11-11 8-11 9-8 8-11 14-7 11-8 16-6 18-4 18-2 15v17l3-4 8-16 13-21 14-20 10-13 11-13 14-15 7-4 7 1 3 3 1 2v7l-9 11-8 8-9 11-14 18-16 24-10 17-7 14v2l18-4 23-4 14-2 7-7 10-8 9-8 9-11 9-12 9-15 8-17 6-19 4-22 2-22v-14l-1-13zm-61 192-27 3-28 6-23 8-15 8-12 9-15 15-6 8v2l9-2 28-8 27-6 27-4 13-1h16l13 1 7 3 3 4-1 8-3 3-3 1h-28l-22 2-24 4-30 7-26 8-3 2 19 10 23 10 21 7 17 4 16 2h34l21-3 24-6 16-6 17-9 17-11 17-13 13-13-2-4-13-10-17-12-17-10-19-8-21-6-21-3z" fill="#010101"/>
<path transform="translate(1016,1144)" d="m0 0h9l9 6 4 5 1 7-3 7-5 4-5 2-9-1-6-4-4-8v-7l3-6z" fill="#020202"/>
<path transform="translate(939,1214)" d="m0 0 8 1 8 5 3 6v7l-4 8-7 4h-10l-6-4-3-4-1-3v-7l4-8 5-4z" fill="#010101"/>
</svg>
