<?xml version="1.0" encoding="UTF-8"?>
<svg version="1.1" viewBox="0 0 2048 2048" width="2048" height="2048" xmlns="http://www.w3.org/2000/svg">
<path transform="translate(1257,737)" d="m0 0h23l23 3 22 6 20 8 19 10 17 12 14 12 10 10 11 14 10 15 8 16 6 15 5 21 3 15 4 84 12 308v25l-7 20-7 13-9 11-10 9-13 8-14 6-19 5-11 2-135 1h-656l-8-3-7-7-3-8-1-20-7-273-1-47v-18l3-9 5-6 19-9 22-12 70-38 26-14 22-12 46-25 26-14 22-12 54-29 10-5 9-1 9 3 5 4 4 8v12l-5 8-8 6-26 14-23 13-32 17-23 13-23 12-22 12-70 38-26 14 79 1 377 2 128 1 46-1h22l19-2 21-6 16-8 13-9 13-13 9-14 5-11 4-13 2-14v-14l-3-19-6-17-10-19-10-13-9-10-11-9-13-9-19-10-21-7-14-3-9-1h-31l-9-3-7-6-3-7v-10l4-8 6-5 9-3zm152 261-7 7-17 13-18 10-15 6-13 4-15 2-21 1h-12l-45 2h-136l-378-2h-134l2 74 1 20 21-6 17-3h18l13 4 10 9 6 5 6 2h15l25-5 40-10 14-2h18l16 4 19 7 15 3 24 2h23l22-2 29-6 34-9 18-3h15l15 3 24 7 16 3 10 1h18l21-3 26-7 12-2h20l45 7 10 1h19l22-3 24-5h23l21 4 8 1h11l16-3 13-5 10-6 8-7 3-4v-27l-3-79zm5 136-14 8-16 6-16 3h-19l-23-4-5-1h-16l-37 7-9 1h-27l-23-3-23-4-9-1h-12l-16 3-27 7-16 2h-26l-21-3-22-6-14-4-14-1-20 3-37 10-26 5-20 2h-34l-21-2-19-4-22-8-10-2h-10l-19 3-48 12-13 2h-22l-12-4-9-7-5-6-8-3h-13l-24 5-14 5-1 1v36l1 39 1 4h39l731-6 12-4 11-7 9-9 8-16 3-8v-27l-1-24zm4 91-7 7-14 9-12 5-8 2-57 1-522 4-193 1-1 1 1 53 1 36h616l148-1 18-4 12-5 8-6 8-9 4-10 1-29v-18l-1-27-1-10z" fill="#020202"/>
<path transform="translate(1512,1263)" d="m0 0h7l14 5 25 13 12 8 10 8 10 9 9 12 7 14 2 8 1 12-3 16-8 16-8 10-12 12-17 12-17 10-23 11-28 11-37 12-42 11-46 10-52 9-50 7-54 6-61 5-55 3-27 1-50 1h-48l-48-1-65-3-54-4-58-6-57-8-44-8-37-8-38-10-36-12-25-10-19-9-18-11-12-9-12-11-10-14-5-11-3-14v-9l4-16 6-12 8-10 5-6 11-9 14-10 21-12 18-8 4-1h7l7 3 6 5 3 6 1 9-3 8-5 6-16 8-18 10-14 10-9 8-6 10-1 9 4 8 8 9 14 10 20 11 24 10 36 12 29 8 40 9 50 9 59 8 49 5 54 4 39 2 28 1h137l49-2 62-4 63-6 47-6 46-7 52-10 42-10 31-9 35-12 23-10 21-11 14-10 10-9 6-10v-10l-6-9-8-8-15-10-23-12-10-5-6-7-2-5v-11l5-8 6-5z" fill="#010101"/>
<path transform="translate(1022,547)" d="m0 0 7 1 10 9 14 12 11 9 15 15 9 13 8 15 5 15 3 16v26h2l2-11 7-19 8-16 8-14 11-14 13-13 15-11 19-10 21-7 20-4 31-3 30-1 6 3 3 4 1 6-6 27-6 33-6 21-7 16-8 15-10 14-13 15-16 16-14 11-10 7-5 3h-2l8 13 5 16 2 14v29l-4 20-6 15-9 14-9 11-18 18-15 11-14 8-15 7-21 7-30 7-28 5-24 3-26 2h-33l-13-3-10-6-6-9-3-8-2-13v-14l4-52 3-61 3-27 4-19 7-19 10-18 11-13 8-7 14-7 13-3h4l-5-15-2-10-1-11v-16l2-19 5-24 6-18 4-5zm5 28-5 22-2 19v15l2 15 4 13 5 7 2 1 29 3 18 3h4v-20l-4-18-8-17-10-14-10-10-11-9-12-10zm240 1-27 2-23 4-21 7-15 8-12 9-9 8-11 14-8 13-9 19-6 18-1 7 19 10 6 3 25-25 14-11 10-7 8-4 8 1 3 4v8l-5 5-13 9-13 11-13 12-9 9 2 4 8 10 5 7 6-1 13-7 11-9 10-9 7-6 7-8 10-12 10-15 9-19 6-21 8-43v-5zm-249 110-17 2-10 4-10 9-7 9-8 14-6 17-4 22-2 22-3 60-3 39v29l3 8 4 3 9 2h26l37-3 32-5 28-6 24-7 18-8 14-8 11-9 12-11 9-10 9-14 5-11 3-12 1-7v-23l-3-18-4-9-6-8-16-15-9-12-9-10-15-11-14-6-23-7-29-6-23-3z" fill="#030303"/>
<path transform="translate(986,787)" d="m0 0 7 1 4 4 1 2v7l-5 5-9 1-5-3-2-4v-6l4-5z" fill="#0A0A0A"/>
<path transform="translate(1122,743)" d="m0 0 7 1 5 5v8l-4 5-9 1-5-3-2-3v-7l5-6z" fill="#090909"/>
<path transform="translate(1160,809)" d="m0 0 7 1 4 4 1 7-3 5-4 3h-6l-5-3-2-4v-6l5-6z" fill="#0E0E0E"/>
<path transform="translate(1029,728)" d="m0 0h9l5 5v8l-4 5-2 1h-7l-6-5v-9z" fill="#080808"/>
<path transform="translate(1103,785)" d="m0 0 7 1 5 5v8l-5 5-5 1-7-3-2-3v-8l5-5z" fill="#0B0B0B"/>
<path transform="translate(976,896)" d="m0 0 7 1 5 6v6l-2 4-6 3-8-2-3-4-1-6 3-5z" fill="#111"/>
<path transform="translate(987,717)" d="m0 0h8l5 4 1 2v7l-4 5-8 1-5-3-3-7 3-7z" fill="#0A0A0A"/>
<path transform="translate(1041,775)" d="m0 0h7l5 4 1 2v7l-5 6h-8l-5-4-1-2v-7l4-5z" fill="#080808"/>
<path transform="translate(1084,831)" d="m0 0 6 1 5 5v8l-5 5h-9l-5-5v-8l5-5z" fill="#0D0D0D"/>
<path transform="translate(1083,880)" d="m0 0 7 1 4 4v9l-5 5h-8l-5-4-1-7 3-5z" fill="#0E0E0E"/>
<path transform="translate(1023,856)" d="m0 0 7 2 3 4 1 4-3 7-7 3-7-3-2-3v-8l5-5z" fill="#090909"/>
</svg>
