<?xml version="1.0" encoding="UTF-8"?>
<svg version="1.1" viewBox="0 0 2048 2048" width="2048" height="2048" xmlns="http://www.w3.org/2000/svg">
<path transform="translate(1012,473)" d="m0 0h13l8 6 14 14 7 8 10 11 9 11 10 13 13 21 6 12 7 22 5 25 1 9v21l-3 19-10 36-4 11 17-5 5-1h20l3-9 9-14 10-11 14-11 16-9 19-8 21-5 19-2h10l18 2 15 4 12 5h4l10-9 13-8 16-7 17-4 8-1h22l17 3 18 6 14 8 12 11 6 7 7 14 3 11 14 4 12 6 11 9 9 12 6 13 3 13v24l-4 17-7 16-7 12 2 4 9 11 5 10 4 14 1 7v22l-3 13-8 16-9 13 6 2 17 12 10 9 9 13 5 12 1 5v13l-5 19-6 31-8 30-11 33-11 27-14 30-13 24-12 20-10 15-12 17-9 12-11 14-13 15-9 10-14 15-13 13-8 7-13 12-11 9-16 13-18 13-27 18-20 12-14 8h-2l11 15 6 12 3 10v14l-4 11-7 10-8 7-16 8-26 7-43 9-36 6-38 4-35 2-28 1h-92l-31-1-28-2-29-4-23-5-20-7-17-9-10-9-5-9-2-6v-15l4-12 2-4-12-6-20-9-22-12-17-10-21-14-19-14-11-9-14-12-15-14-14-14-7-8-13-15-15-20-12-17-15-25-14-27-8-17-9-23-10-30-8-32-6-35-3-29-1-19v-30l1-19 3-12 7-10 10-13 10-9 15-10 17-9 17-7 4-1h7l8 3 5 4 4 7 1 4v7l-3 8-4 5-32 16-11 7-8 7-2 3v6l7 8 13 9 23 11 25 9 26 8 33 8-8-18-3-8-11-7-12-12-9-14-6-16-2-9-1-17 2-15 5-14 4-7-1-4-9-9-9-13-7-15-4-15-1-7v-16l3-15 6-15 7-10 9-10 11-8h2l-3-12-1-8v-27l3-16 6-17 7-13 8-10 7-8 12-9 16-8 15-4 9-1h12l17 3 14 5 12 6 14 10 10 9 9 11 5 7 10-3 15-3h17l16 3 16 6 15 9 13 12 9 10 9 15 6 15 3 12 1 7v14l11 2 15 6 13 9 12 12 7 11 5 12 1 9 17-4 16-1-2-17v-52l-5-1-10-7-11-11-7-8-8-8-8-7-7-7-9-13-8-15-8-21-4-17-3-25v-21l2-23 4-17 10-23 8-15 10-17 9-14 9-10 5-4zm5 26-6 8-15 26-10 19-6 15-2 9-2 23v18l3 23 4 16 8 19 8 14 11 12 15 14 11 12h1l-1-18-5-43-4-24-7-25v-6l4-6 7-2 6 2 4 4 4 11 6 24 5 37 5 46 4-2 8-15 6-15 10-37 2-14v-18l-3-19-5-19-6-16-13-21-9-12-12-14-12-13-9-10-3-3zm357 144-18 4-14 6-11 8-8 9-6 7-8 1-6-2-1-3-15-7-16-4-8-1h-14l-20 3-16 5-14 6-15 10-11 10-7 10-5 11-3 11-5 5-6 1-7-3h-19l-15 5-12 7-13 13-7 11-5 11-4 15-1 7v13l3 17 1 2 16 6 12 7 10 9 5 7 3-1 7-8 13-12 17-12 16-9 21-9 17-5 24-4 4-2 5-13 1-4v-44l4-6 2-1h9l5 4 3 10v37l-4 15v3l24 4 21 6 8 3 4-1 23-23 7-8 11-13 11-14 9-10 7-8 24-28 4-2h7l5 2 2 5v8l-6 9-10 11-9 11-13 14-8 10-14 17-11 12-19 19v2l13 9 12 11 11 11 11-6 11-4 31-5h13l6 2 2 5v8l-4 5-7 2-31 4-11 3-6 3-1 4 9 19 6 18 3 15 1 8v31l-3 20 6-2 12-9 9-9 9-14 3-11-2-8-2-4v-7l4-6 11-4 21-4 10-4 12-9 6-8 5-10 2-7v-20l-3-13-6-10-9-8-5-5-1-2v-7l4-11 7-10 7-15 3-12 1-14-2-12-4-10-8-10-9-6-11-4-15-3-4-2-3-16-3-10-8-11-11-8-13-6-18-4zm-653 4-16 4-13 7-11 10-7 10-7 15-4 17v26l4 18 2 10-3 7-6 3-7 3-8 6-8 9-6 13-2 10v14l4 16 7 14 10 12 14 11 3 4v8l-2 4-8 6-5 10-3 14v9l3 15 8 16 7 8 9 6 11 6 3 6 2 11 8 16 13 13 7 5 22 4 51 7 18 2h7l-2-10-2-14v-12l2-14 5-15 7-14 10-13 13-13-2-4-7-8-8-10-14-11-20-14-16-10-15-8-17-6-21-6-11-3-5-6-1-3v-8l4-6 2-1h9l6 4 34 10 18 8 19 11 16 11 1-2-18-37-13-21-14-22-13-17-10-13-11-16-10-13-1-8 3-6 4-2h8l6 4 13 17 9 13 12 15 15 22 12 19 12 20 11 22h1l2-26 4-20 10-30 5-6 9-1 5 3 3 5-1 9-9 27-3 15-1 9v27l5 45 5 13 6-2 5-3 3-14 4-10 7-10 8-9 14-10 16-8 21-6 20-2 8-10 1-1v-13l-3-10-6-9-6-7-10-7-11-5-10-2h-12l-6-3-3-5v-6l2-5v-17l-4-16-4-10-8-12-13-13-11-7-11-5-13-3h-16l-12 3-10 4h-13l-6-4-8-12-9-11-10-9-13-8-15-6-12-2zm518 172-19 2-17 4-17 6-17 8-15 10-10 8-12 11-11 13-10 15-10 21-6 20-3 21v18l3 21 5 16 7 16 10 16 13 15 3 1 53-3 48-4 54-6 48-7 20-4 6-8 9-16 8-20 4-17 2-19-1-22-4-19-6-17-9-17-9-12-9-10-8-8-15-11-21-11-18-6-14-3-19-2zm-207 32-16 4-11 6-7 7-4 8v2l-5 2-26 2-15 4-12 5-11 7-11 11-6 12-1 10v10l-2 4-6 3-9 2-15 8-14 11-10 11-8 13-5 15-1 5v18l4 15 4 9 35 3 52 3 27 1 44 1h59l42-1-2-4-9-14-8-15-6-16-5-21-1-7v-36l5-25 9-25 10-18v-2l-4-4-4-6-5-5-9-6-13-5-10-2zm-209 36m651 46-11 3-1 15-4 12-8 14-9 11-12 11-18 11-14 5h-5l-7 14v2l12-2 31-8 36-12 21-9 16-9 11-9 3-7-1-5-5-6-13-9-10-6-5-5-3-6-2-5zm-929 97 2 26 5 32 6 26 9 29 9 24 11 24 11 21 13 21 14 20 11 14 12 14 14 15 13 13 8 7 14 12 16 12 16 11 19 12 24 13 23 11 28 11 31 10 29 7 27 5 35 4 16 1h49l37-3 33-5 36-8 31-9 26-9 29-12 33-16 25-14 19-12 19-13 19-14 17-14 10-9 8-7 15-14 11-11 7-8 11-12 9-11 12-15 13-18 13-20 13-22 14-27 9-19 12-31 9-28-1-4-24 10-30 10-38 10-38 8-54 9-56 7-54 5-64 4-59 2h-98l-59-2-64-4-55-5-48-6-45-7-37-7-42-10-30-9-25-9-24-11-8-5zm673 388-24 10-28 10-29 9-32 8-32 6-31 4-25 2h-63l-34-3-32-5-28-6-26-7-5-1-3 4 1 4 15 6 21 5 19 3 22 2 19 1 52 1h48l35-1 50-3 33-4 34-6 41-9 17-5 2-4-6-9-10-12z" fill="#030303"/>
<path transform="translate(971,953)" d="m0 0h8l12 6 18 27 1 7-5 5h-23l-13-3-4-4-1-2v-12l4-22z" fill="#040404"/>
<path transform="translate(1278,983)" d="m0 0 8 1 33 10 5 5-1 6-13 18-5 7-2 1h-6l-6-7-12-19-6-10v-7z" fill="#121212"/>
<path transform="translate(1154,918)" d="m0 0 6 1 13 11 11 9 8 7 1 8-3 4-3 1-40 1-5-2-1-2v-7l9-27z" fill="#0E0E0E"/>
<path transform="translate(1236 1e3)" d="m0 0h6l4 5 17 33v7l-5 3-26 4h-7l-4-4 1-9 8-33 5-5z" fill="#0E0E0E"/>
<path transform="translate(1191,989)" d="m0 0 9 1 2 2v8l-12 36-4 4-6-1-21-16-5-5v-6l5-4z" fill="#070707"/>
<path transform="translate(1240,867)" d="m0 0h9l3 3v9l-6 33-6 7h-6l-5-6-17-29-2-6 3-5 22-5z" fill="#121212"/>
<path transform="translate(1308,909)" d="m0 0 6 1 6 10 9 18v5l-5 4-32 3h-7l-5-3-2-2v-6l7-7 7-8 14-14z" fill="#131313"/>
<path transform="translate(936,995)" d="m0 0h8l12 4 5 8v7l-3 9-5 5-5 2h-8l-9-3-5-5-2-4v-9l3-7 7-6z" fill="#040404"/>
<path transform="translate(1e3 1e3)" d="m0 0h8l6 3 4 5 3 6 3 4v10l-3 8-4 3h-10l-10-3-4-4-1-2-1-18 3-8z" fill="#050505"/>
</svg>
