<?xml version="1.0" encoding="UTF-8"?>
<svg version="1.1" viewBox="0 0 2048 2048" width="2048" height="2048" xmlns="http://www.w3.org/2000/svg">
<path transform="translate(933,643)" d="m0 0h135l54 1 51 2 34 3 33 5 26 6 30 10 21 10 11 8 8 7 9 13 5 10 4 13 2 13v13l-2 14-5 17-9 19-2 6-1 12 2 10 6 10 16 15 8 7 40 40 2 1v2l4 2 11 12 12 13 7 6 10 7 6 7 3 9-1 9-4 8-9 8-16 9-16 6-12 3-15 2-25 1 9 20 8 21 9 28 10 40 5 26 3 27 1 17v139l-2 50-3 42-1 9v13l-7 27-8 16-11 20-9 12-14 14-14 10-20 12-23 12-20 8-28 9-36 9-36 6-54 6-36 3-17 1h-71l-49-3-49-5-40-6-45-9-39-10-35-11-25-10-13-7-7-6-7-8-15-14-9-9-11-16-8-16-8-24-5-23-3-27-1-23-1-216 1-39 3-31 5-26 7-22 8-21 3-6h-12l-29-3-16-4-10-6-6-7-4-10v-16l4-11 7-13 9-12 13-16 11-14 11-13 12-16 10-13 11-12 9-11 6-12 2-8v-11l-3-12-7-10-5-16-1-6v-23l3-15 7-16 9-13 12-12 10-7 16-9 20-8 20-6 27-6 37-5 34-3 37-2zm8 42-55 2-42 3-33 4-26 5-25 7-17 7-14 9-6 5-7 10-4 13v9l5 9 9 10 7 6 12 4 21 4 61 8 48 5 33 2h57l50-1 43-2 81-6 112-11 25-5 13-5 10-6 6-7 4-9 3-17-4-10-7-8-14-8-25-9-28-7-32-5-34-3-20-1-35-1-58-1zm362 131-21 7-27 5-40 4-72 7-81 6-41 2-46 1h-73l-31-2-56-6-53-7-27-5-16-4v15l3 5 6 5 11 5 23 7 27 6 35 5 44 4 137 8 23 1h75l45-3 30-4 24-5 35-9 24-8 20-9 18-10 3-5 3-12v-4zm-1 43-19 10-20 8-8 3 1 13 5 25 5 15 7 13 6 8 16 7 16 4 29 4h46l14-2 5-2-6-8-15-16-17-17-8-7-29-29-8-7-14-13-5-9zm-591 5-9 15-11 14-16 21-8 10-9 11-13 16-11 14-7 10 3 2 22 2h22l17-2 25-6 22-6 6-1h11l11 4 8 6 12 11 15 11 16 9 12 5 19 5 8 1h24l24-4 25-7 22-8 17-8 15-9 8-4 4-1h14l14 5 34 16 22 10 15 5 6 1h13l16-4 20-7 20-9 23-12 14-8 1-2-14-26-5-14-1-5v-27l-17 2-40 4-43 2h-42l-50-2-120-7-48-4-36-5-29-6-25-7-15-6-9-5zm519 23-20 5-2 6-1 6v16l3 11 8 16 9 16 14-3 14-2-2-5-8-17-6-21-4-26-1-2zm81 120 4 7 3 2-2-8zm7 9m-65-16-14 3-2 21-2 11 5 8 5 16 3 27 1 17-3 7-4 2-8-1-4-5-2-15-3-27-3-11-8 3-8-1-4-2-3-5-1-6 3-9 5-5 9-4 2-5v-5l-5 2-26 14-26 11-27 9-15 3h-24l-21-5-24-10-33-16-11-5-5 1-18 10-17 8-25 9-30 8-26 4h-33l-19-3-20-6-18-8-15-9-14-10-14-12-3-3-8 1-29 8-3 2-5 9-9 17-9 24-5 17-4 25-2 26v229l1 34 2 23 5 24 6 18 8 15 12 14 8 7 11 9 18 11 10 5 27 9 42 11 38 8 37 6 44 5 42 3 20 1h64l42-3 57-6 32-5 30-7 27-8 19-7 17-8 21-12 13-9 10-9 10-15 11-23 5-30 3-34 2-40 1-39v-108l-2-36-4-27-6-27-9-33-9-26-9-20-5-9h-1l-3 9-6 3-6-1-7-6-13-18-6-11-2-1-10-1z"/>
<path transform="translate(963,1187)" d="m0 0 15 1 14 4 14 7 10 9 7 9h2l8-10 9-8 16-8 12-3 15-1 12 2 12 5 9 7 8 11 6 13 3 13v15l-3 13-8 16-7 11-11 14-15 16-28 28-7 8-12 12-7 8-10 9-2 2-4-1v-2l-4-2-12-12-7-8-12-12-7-8-31-31-7-8-13-17-9-16-5-14-1-6v-15l4-16 8-15 6-7 10-7 10-4zm-4 18-9 3-6 4-7 8-5 12-2 11 1 12 4 11 9 16 9 11 9 10 14 15 29 29 7 8 8 8 3 4 4-2 7-8 8-8 7-8 32-32 7-8 10-11 9-13 8-15 3-14-1-12-4-12-6-9-7-6-6-3-5-1h-15l-12 3-10 5-8 7-9 14-4 6-5 2-8-1-4-5-7-12-8-9-8-5-12-4-5-1z" fill="#010101"/>
</svg>
