<?xml version="1.0" encoding="UTF-8"?>
<svg version="1.1" viewBox="0 0 2048 2048" width="2048" height="2048" xmlns="http://www.w3.org/2000/svg">
<path transform="translate(945,678)" d="m0 0h36l27 3 25 5 19 7 10 6 5 6 4 6 5 5 4 8v9l-5 10-5 8-5 15-2 12-1 13v19l2 20 5 17 9 16 11 14 12 12 13 7 18 5 7 4 7 8 3 8v14l-5 27-1 10v11l3 14 4 8 9 10 11 8 16 8 18 6 20 4 12 1h11l13-2 10-6 7-2 9 1 8 4 6 8 7 16 7 9 5 4 9 4 18 2 18-1 18-4 14-6 9-7 10-11 4-5 8-5 3-1h12l8 4 5 5 5 8 5 15 4 21 2 24-1 24-4 26-9 39-3 24-3 31-5 23-7 21-11 24-10 18-15 22-13 18-10 14-13 21-10 17-11 16-9 11-11 12-13 13-11 9-17 13-17 11-21 12-19 9-22 8-21 5-21 3-15 2-57 18-36 9-42 9-28 4-13 1h-24l-19-2-20-4-24-8-20-10-17-12-11-9-11-8-11-4-30-6-18-6-17-9-13-10-12-12-12-16-12-18-9-10-9-8-25-16-14-10-13-12-11-14-10-19-7-21-4-18-5-32-3-10-7-14-14-22-12-21-10-23-8-25-5-24-3-23-1-16v-20l2-25 4-24 8-30 11-31 15-33 11-21 12-20 10-15 12-17 10-13 13-16 13-15 12-13 20-20 8-7 14-12 12-11 11-13 8-8 11-7 5-3 7-13 9-10 8-7 14-7 14-4 12-2 21-1 13-10 16-9 18-7 20-5 26-4zm1 42-26 3-21 5-13 5-11 6-14 11-8 4-10 2-23 1-13 3-8 5-4 5-8 15-9 8-14 8-11 12-7 8-9 9-11 9-13 12-8 7-15 15-7 8-13 15-11 14-10 13-14 20-15 25-14 27-11 25-8 23-6 20-4 20-2 15-1 17v15l2 25 4 23 7 24 9 21 8 15 12 19 9 15 7 15 5 19 5 33 5 19 6 14 7 10 7 8 13 10 24 15 13 10 9 8 11 14 15 22 9 11 10 9 12 7 16 5 30 6 16 6 11 7 16 13 14 10 16 8 14 5 17 4 18 2h20l28-3 35-7 34-8 31-9 34-11 12-3 32-4 19-5 21-8 25-13 21-14 13-10 14-12 11-11 9-11 10-14 21-35 11-16 13-18 10-14 10-16 12-23 8-22 5-23 4-43 5-25 6-26 3-19v-36l-2-4-11 7-15 7-21 6-13 2-23 1-19-2-17-5-13-7-12-11-8-10-4-6-21 3h-15l-19-2-20-4-27-9-23-12-12-9-8-7-8-10-8-14-5-14-2-9-1-9v-15l3-23 1-10-13-5-11-6-10-8-8-7-7-8-13-17-10-17-7-18-4-18-2-21v-24l2-20 4-19 7-19-7-3-25-5-20-2z"/>
<path transform="translate(797,990)" d="m0 0h17l13 4 10 7 8 8 6 11 3 9 1 11-2 13-8 16-10 10-8 5-12 4h-20l-14-5-9-7-7-7-5-8-4-12-1-12 3-15 7-13 10-10 14-7z"/>
<path transform="translate(1201,1232)" d="m0 0h11l10 3 9 3 9 6 7 7 7 14 2 8v16l-4 12-6 10-4 5-11 8-10 4-10 2-14-1-11-4-10-6-7-7-6-10-4-11-1-14 4-16 7-11 9-9 14-7z"/>
<path transform="translate(929,1301)" d="m0 0 15 1 10 3 11 7 8 9 6 12 2 8v15l-4 13-7 11-9 8-12 6-8 2h-15l-13-4-9-6-6-5-8-12-3-9-1-5v-13l3-11 5-10 7-8 10-7 11-4z"/>
<path transform="translate(1382,789)" d="m0 0h10l14 5 9 7 7 7 4 8 2 7v9l-4 12-7 10-8 7-11 5-4 1h-15l-10-4-8-6-6-9-3-9v-16l3-10 5-9 6-7 10-6z"/>
<path transform="translate(919,848)" d="m0 0h10l16 4 9 4 7 7 4 10v13l-4 10-6 8-8 7-10 5-9 2h-7l-13-4-10-9-5-9-2-8v-12l4-11 4-6 8-7z"/>
<path transform="translate(762,1194)" d="m0 0h7l10 3 7 6 4 8 3 12v7l-3 8-6 7-15 8-11 5-4 1h-7l-9-3-9-8-3-9 1-21 4-8 8-10 6-4 3-1z"/>
<path transform="translate(1032,1085)" d="m0 0 10 1 10 4 7 6 5 8 2 7v13l-4 10-8 9-9 5-4 1h-13l-9-3-9-7-6-10-2-8v-7l3-10 6-9 8-6 8-3z"/>
<path transform="translate(1268,884)" d="m0 0h11l8 4 5 6 3 7v11l-4 8-7 6-7 2-10-1-8-5-6-8-1-3v-11l4-8 7-6z"/>
<path transform="translate(1076,1391)" d="m0 0h11l8 4 6 7 2 6v7l-3 8-4 5-8 4h-11l-8-4-5-6-3-8 1-10 5-8 6-4z"/>
<path transform="translate(1220,790)" d="m0 0h8l9 4 6 8 2 7-1 9-5 8-8 5-9 1-7-2-8-7-3-8v-10l5-9 8-5z"/>
</svg>
