<?xml version="1.0" encoding="UTF-8"?>
<svg version="1.1" viewBox="0 0 2048 2048" width="2048" height="2048" xmlns="http://www.w3.org/2000/svg">
<path transform="translate(1343,712)" d="m0 0h14l13 4 9 6 8 9 5 11 2 8v20l-4 15-6 15-12 23-13 21-21 32-29 44-42 60-13 18-7 9-1 3 8 1 8 6 4 8 1 4v10l-4 11-8 11-10 9-15 9-18 8-37 12-40 10-39 7-45 6-48 5-57 4-51 2h-52l-48-2-48-4-58-7-83-12-41-7-23-5-13-4v9l4 33 6 27 7 24 11 28 8 16 9 17 12 19 13 17 9 11 11 12 17 17 11 9 18 14 17 11 21 12 21 10 29 11 28 8 25 5 23 3 14 1h41l31-3 28-5 30-8 24-8 26-11 24-12 16-9 8-1v-129l1-70 4-10 7-6 5-2h10l7 3 8 7 9 6 12 5 20 6 24 5 31 4 27 2h61l35-3 32-5 23-6 14-6 1-1-14-6-21-6-25-5-31-4-30-2-37-1-8-3-5-4-4-8v-11l4-8 9-6 4-1h41l39 3 35 5 26 6 17 5 18 8 11 7 9 8 6 8 7 6 3 7 1 21-1 24 7-2 8-1h11l17 3 13 5 12 8 11 10 10 14 7 15 5 17 1 8v19l-4 20-6 16-9 17-10 13-9 10-11 9-15 9-20 8-11 3h-9l1 19 2 11v14l-3 14-5 12-7 11-9 10-9 9-14 10-18 10-23 9-24 7-28 5-19 2h-52l-27-3-29-6-24-7-24-10-17-9-17-12-13-12-9-11-8-14-5-13-2-13-1-32-23 12-24 11-30 11-32 9-29 6-31 4-13 1h-49l-30-3-29-5-28-7-32-11-25-11-25-13-19-12-17-12-14-11-15-13-26-26-9-11-12-15-16-24-11-19-8-16-8-17-10-27-8-28-6-29-3-23-1-11-1-28v-36l4-10 6-8 9-9 18-12 16-9 19-9 24-8 9-2h19l8 4 5 6 2 4v11l-4 8-5 4-7 3-13 2-20 6-25 12-17 11-3 3 14 6 25 6 41 7 98 14 53 6 38 3 20 1 35 1h29l37-1 53-3 56-5 48-6 42-7 31-7 30-9 9-2 2-6 8-12 9-12 9-11 14-18 13-18 12-17 28-40 44-66 12-19 11-18 10-18 7-16 4-16v-8l-3-11-5-7-8-4h-13l-10 5-9 8-9 11-10 12-14 20-17 28-30 52-14 24-13 24-10 18-15 28-14 27-11 23-9 22-4 3-5 1-6-3-3-5 1-10 8-20 12-25 10-20 12-22 15-28 13-23 16-28 14-24 15-26 16-26 14-20 11-14 13-15 7-7 12-8zm-230 478-1 71v162l2 9 4 8 8 10 9 8 14 9 16 8 20 8 27 7 26 4 10 1h47l25-3 23-5 24-8 16-8 11-7 10-9 6-7 5-10 1-4v-8l-2-9-1-13 2-152v-62l-9 3-24 7-31 6-35 4-15 1h-69l-36-3-34-5-30-7-17-6zm361 40-9 2-9 5-1 26-1 89 7-1 17-7 10-7 8-7 10-14 7-15 4-16v-14l-3-11-7-14-6-7-10-6-5-2z" fill="#010101"/>
<path transform="translate(686,1419)" d="m0 0h9l8 4 5 6 2 5v10l-3 8 27 5 29 3 31 2h88l85-3 28-2 27-4 14-3h14l9 6 4 7 1 3v7l-3 8-8 7-11 4-28 5-27 3-42 2-58 2h-96l-43-3-31-4-21-5-12-5-9-6-8-9-3-7-1-5v-12l3-11 7-10 8-6z" fill="#010101"/>
<path transform="translate(841,947)" d="m0 0h29l17 3 13 5 11 6 16 12 14 10 6-1 23-11 18-6 14-3 7-1h29l17 4 14 7 10 8 11 11 9 13 6 10 1 6-3 6-3 2h-8l-6-5-9-14-11-13-10-7-12-5-10-2h-21l-17 3-16 5-16 7-15 7h-13l-8-4-13-10-15-11-14-7-12-3-8-1h-21l-20 3-14 5-14 8-13 10-7 3-7 1-9-3-12-5-15-3h-16l-17 3-16 6-11 7-15 14-7 8-16 16-11 8-5 2-6-1-4-4-1-2v-6l7-8 8-7 35-35 10-7 16-8 17-5 12-2h24l15 3 15 6 4 1 9-6 10-7 15-8 16-5z" fill="#020202"/>
<path transform="translate(1207,1250)" d="m0 0 17 2 13 5 11 7 8 9 4 4 2-4 7-8 9-7 12-5 9-2 11-1 13 2 12 6 7 6 7 11 4 10 2 8v15l-3 12-9 17-8 11-12 14-31 31-7 8-11 11-7 8-5 1h-9l-6-4-7-8-11-12-28-28-7-8-11-12-9-13-8-15-3-10-1-12 3-16 7-14 9-10 8-5 10-3zm-6 16-10 4-7 8-4 8-2 7v16l5 13 7 11 8 10 9 10 8 8 7 8 30 30 6 7 3-1 7-8 8-8 7-8 30-30 7-8 10-13 8-16 2-7v-12l-4-13-7-10-6-4-6-2h-17l-12 4-9 6-7 8-7 12-2 1h-9l-4-5-7-11-4-5-11-7-11-3z" fill="#040404"/>
<path transform="translate(867,739)" d="m0 0h8l5 5v9l-11 13-4 8-1 4v17l5 12 11 21 3 11v8l-3 11-7 14-8 11-6 3-6-1-5-6 1-8 9-16 3-7v-10l-8-16-8-17-3-13v-11l3-14 6-12 9-10z" fill="#020202"/>
<path transform="translate(778,758)" d="m0 0h8l5 5v9l-8 15-1 3v14l4 11 10 19 3 9 1 12-3 16-7 18-6 5h-6l-5-3-2-4 1-9 5-15 1-4v-12l-8-17-6-12-3-10-1-7v-8l2-10 5-12 8-11z" fill="#040404"/>
<path transform="translate(943,782)" d="m0 0h7l5 4 1 8-6 9-3 5v12l7 16 3 8 1 6v8l-2 10-5 12-6 8-3 3-7 1-5-3-2-3v-8l7-14 1-3v-13l-8-18-3-13 1-13 7-14 8-7z" fill="#020202"/>
<path transform="translate(853,1019)" d="m0 0h12l12 2 6 4 2 5-1 7-5 5-3 1-16 2h-5l-2 6-7 3-6-2-4-4-1-9 4-10 9-8z" fill="#030303"/>
<path transform="translate(711,1032)" d="m0 0h10l10 3 14 6 3 5-1 8-4 4-3 1h-10l-7-4-4 2-5 3h-9l-6-4-4-5-1-8 4-6 5-3z" fill="#030303"/>
<path transform="translate(1010,1028)" d="m0 0h15l8 3 5 5 1 2v7l-4 5-2 1h-8l-5-2-8 1-8 4-3 2h-7l-5-4-1-2v-8l7-8 11-5z" fill="#020202"/>
<path transform="translate(799,1062)" d="m0 0h7l8 4 4 5v7l-4 5-2 1-17-1-5-4-1-2v-7l5-6z"/>
<path transform="translate(953,1041)" d="m0 0h7l5 4 1 9-5 8-3 2h-12l-6-5-1-2v-7l3-5z" fill="#040404"/>
</svg>
