<?xml version="1.0" encoding="UTF-8"?>
<svg version="1.1" viewBox="0 0 2048 2048" width="2048" height="2048" xmlns="http://www.w3.org/2000/svg">
<path transform="translate(986,732)" d="m0 0h48l53 5 20 4 17 6 13 7 7 8 4 10 3 25 59 5 43 5 45 7 37 7 30 7 32 9 29 10 20 9 17 9 14 10 10 9 7 8 6 10 6 8 1 3v48l-1 12-2 76-1 12-1 40-1 10 14 2h10l13-2 15-5 16-8 13-10 10-10 7-11 4-9 1-3v-13l-4-7-7-5-12-3-15-1-8-5-5-6-1-3v-10l4-7 6-5 6-2h16l12 2 14 5 10 6 10 9 7 10 5 12 1 5v22l-3 12-7 16-9 13-9 10-10 10-14 10-16 9-20 8-17 4-9 1h-17l-10-1-2-1-2 41-3 35-4 41-3 26-8 27-9 22-8 16-9 16-12 17-14 17-22 22-14 11-14 10-19 11-16 8-20 8-15 5-21 5-20 3-18 2h-27l-280-2-109-1h-20l-17-1-36-9-23-8-25-11-20-11-17-11-16-12-11-9-12-11-15-15-9-11-10-13-10-15-10-18-9-20-6-19-4-20-1-6v-23l1-7v-23l-1-52v-28l-8 1h-22l-13-2-16-4-16-7-12-7-12-9-15-15-9-14-7-15-3-13v-24l4-13 6-12 9-11 8-7 11-7 16-6 7-2h13l8 5 4 5 2 7-1 8-4 6-6 5-19 6-11 7-6 9-2 5v15l5 13 7 10 10 10 14 9 15 6 15 3h16l9-2 2-1-1-31-1-72v-52l3-22 5-15 4-5 6-9 13-13 14-10 18-10 26-11 22-8 31-9 34-8 42-8 49-7 44-5 37-3h5v-12l4-16 6-11 9-10 8-6 18-7 18-3zm12 27-30 3-12 4-8 5-6 10-2 6v8l1 1h22l33-1h77l34 1h14l1-1-1-16-5-5-19-7-18-3-44-4zm16 72-48 1-55 3-44 4-37 4-43 6-42 8-30 7-26 7-27 9-21 9-17 9-13 10-7 8-2 4v7l6 9 10 9 17 10 22 10 36 12 34 9 34 7 34 6 43 6 37 4 37 3 32 2 24 1 49 1h38l48-1 38-2 42-3 41-4 46-6 41-7 37-8 30-8 30-10 25-11 14-8 12-9 7-8 2-5v-9l-8-9-14-10-19-10-25-10-28-9-44-11-36-7-46-7-52-6-36-3-56-3-47-1zm-413 148 1 103 1 29v17l-2 67-1 21v23l1 37 4 15 8 21 10 19 8 12 9 12 12 14 19 19 14 11 15 11 20 12 16 8 19 8 22 7 19 4 14 2 53 1 260 2h126l20-2 25-5 27-9 23-11 19-12 14-11 12-11 13-13 11-14 10-15 10-18 8-18 7-21 5-21 3-17 3-35 2-30 2-79 1-11 2-74 1-14v-32l-2-1-25 13-28 11-25 8-26 7-42 9-45 8-46 6-51 5-45 3-51 2h-93l-50-2-45-3-41-4-42-5-50-8-39-8-38-10-33-11-19-8-16-8-11-6z" fill="#0D0D0D"/>
<path transform="translate(970,1150)" d="m0 0 15 1 14 4 14 7 10 9 7 9h2l8-10 9-8 16-8 12-3 15-1 12 2 12 5 9 7 8 11 6 13 3 13v15l-3 13-8 16-7 11-11 14-15 16-28 28-7 8-12 12-9 11-7 2-5-1-5 1-6-3-12-14-14-14-7-8-31-31-7-8-13-17-9-16-5-14-1-6v-15l4-16 8-15 6-7 10-7 10-4zm-4 18-9 3-6 4-7 8-5 12-2 11 1 12 4 11 9 16 9 11 9 10 14 15 29 29 7 8 8 8 3 4 4-2 7-8 8-8 7-8 32-32 7-8 10-11 9-13 8-15 3-14-1-12-4-12-6-9-7-6-6-3-5-1h-15l-12 3-10 5-8 7-9 14-4 6-5 2-8-1-4-5-7-12-8-9-8-5-12-4-5-1z" fill="#0D0D0D"/>
<path transform="translate(1056,383)" d="m0 0h6l5 4 1 5-3 6-12 7-5 4-9 12-5 12-3 16v17l3 18 6 16 8 15 8 14 5 13 2 10v18l-4 20-6 16-9 17-15 22-7 2-5-3-2-4 1-7 10-16 8-13 7-17 3-14 1-15-2-13-5-12-9-15-8-16-5-15-3-16v-27l4-18 8-16 8-11 8-8 10-6z" fill="#0D0D0D"/>
<path transform="translate(1188,484)" d="m0 0h7l4 4 1 5-3 6-7 6h-2l-2 4-8 9-7 14v16l5 14 9 17 8 16 4 15v21l-5 16-9 17-8 12-7 9-4 3h-6l-5-5v-6l7-11 10-16 7-14 2-9v-13l-3-12-8-17-10-19-5-15-1-6v-11l3-11 6-12 8-10 9-10 8-6z" fill="#0D0D0D"/>
<path transform="translate(904,489)" d="m0 0h6l5 4 1 5-3 6-6 7-7 13-2 10 1 16 5 17 9 24 3 13 1 8v10l-3 18-10 38-3 8-2 2h-8l-4-4v-13l10-39 1-6v-18l-4-16-10-27-4-18v-18l4-14 6-11 7-9z" fill="#0D0D0D"/>
</svg>
